<svg xmlns="http://www.w3.org/2000/svg" viewBox="0 0 50 50"><defs><style>.cls-1{fill:#9d9e9e;fill-rule:evenodd;}</style></defs><title>Household</title><g id="Layer_2" data-name="Layer 2"><path class="cls-1" d="M3.21,43.17h4V25.09h-4a.59.59,0,0,1-.59-.59V20.83a.59.59,0,0,1,.24-.48L24.49,1.15a.59.59,0,0,1,.78,0h0l21.9,19.27a.59.59,0,0,1,.2.45V24.5a.59.59,0,0,1-.59.59h-4V43.17h4a.59.59,0,0,1,.59.59v4.64a.59.59,0,0,1-.59.59H3.21a.59.59,0,0,1-.59-.59V43.76A.59.59,0,0,1,3.21,43.17Zm5.21,0H18V25.5a.59.59,0,0,1,.59-.59H31.43a.59.59,0,0,1,.59.59V43.17h9.56V24.5a.59.59,0,0,1,.6-.59h4V21.13L24.88,2.38,3.8,21.09v2.81h4a.59.59,0,0,1,.6.59Zm10.72,0h11.7V26.1H19.14Zm12.32,1.19H3.81v3.46H46.2V44.36H31.46Z"/></g></svg>