<svg id="Layer_1" data-name="Layer 1" xmlns="http://www.w3.org/2000/svg" viewBox="0 0 50 50"><defs><style>.cls-1{fill:#9d9e9e;fill-rule:evenodd;}</style></defs><title>Lawn and Garden</title><path class="cls-1" d="M24.49,3.18c-.75,1.1-1.64,2.37-2.59,3.74-1.43,2.06-3,4.34-4.52,6.56l7.11,4.11Zm0,24.25L12.85,20.71c-.3.57-.55,1.07-.74,1.51a14.18,14.18,0,0,0-1.11,5L24.49,35Zm-11.14-7.6c.9-1.58,2.13-3.49,3.46-5.49l7.68,4.43v7.49ZM11,28.36l13.47,7.78v4.91a14.64,14.64,0,0,1-5.2-1.11,13.61,13.61,0,0,1-6-4.9A13.06,13.06,0,0,1,11,28.36Zm14.5-2.1,11.14-6.43c-.91-1.58-2.13-3.49-3.47-5.49l-7.67,4.43Zm11.63-5.54c.3.57.55,1.07.74,1.51a14.16,14.16,0,0,1,1.11,5L25.51,35V27.43ZM25.51,17.59V3.18c.75,1.1,1.63,2.37,2.59,3.74,1.43,2.06,3,4.35,4.52,6.56ZM39,28.36,25.51,36.14v4.91a14.64,14.64,0,0,0,5.19-1.11,13.62,13.62,0,0,0,6-4.9A13.06,13.06,0,0,0,39,28.36ZM24.54,1.28a.51.51,0,0,1,.91,0c.81,1.23,2.07,3,3.48,5.06,3.73,5.35,8.53,12.24,9.88,15.49A15.05,15.05,0,0,1,40,27.67a14.07,14.07,0,0,1-2.45,7.94,14.65,14.65,0,0,1-6.48,5.27,15.7,15.7,0,0,1-5.59,1.19v6.42a.51.51,0,1,1-1,0V42.07a15.7,15.7,0,0,1-5.59-1.19,14.63,14.63,0,0,1-6.48-5.27A14.08,14.08,0,0,1,10,27.67a15.14,15.14,0,0,1,1.2-5.84c1.36-3.25,6.16-10.14,9.88-15.49C22.47,4.32,23.73,2.51,24.54,1.28Z"/></svg>