<svg id="Layer_1" data-name="Layer 1" xmlns="http://www.w3.org/2000/svg" viewBox="0 0 50 50"><defs><style>.cls-1{fill:#9d9e9e;fill-rule:evenodd;}</style></defs><title>Transportation</title><path class="cls-1" d="M40.13,30.1A4.39,4.39,0,0,0,37,31.38l0,0a4.39,4.39,0,0,0,6.23,6.18l0,0a4.39,4.39,0,0,0-3.13-7.47ZM20.77,13.87H5.23a.71.71,0,0,0-.49.2.7.7,0,0,0-.21.49v7.18H20.77ZM5.23,12.94a1.62,1.62,0,0,0-1.15.48h0a1.63,1.63,0,0,0-.48,1.15v7.65a.47.47,0,0,0,.46.47H20.77v9.21H18.32a7.6,7.6,0,0,0-1.74-2.71h0A7.47,7.47,0,0,0,6,29.16a7.16,7.16,0,0,0-.74.85H2.14V13a1.86,1.86,0,0,1,.55-1.32h0A1.86,1.86,0,0,1,4,11.13H42.15a1.87,1.87,0,0,1,1.13.37h0a1.88,1.88,0,0,1,.67,1l2.46,8.79a1.61,1.61,0,0,0,1,1.08h0l.42.17h0a.68.68,0,0,1,.45.65V30H46.16a7.4,7.4,0,0,0-.72-.83,7.51,7.51,0,0,0-12.35,2.71H31.42V22.68H44.24l.13,0a.47.47,0,0,0,.32-.57l-2.23-8h0a1.62,1.62,0,0,0-.58-.86h0a1.62,1.62,0,0,0-1-.33H5.23Zm.68,17.78,0,.06a6.54,6.54,0,0,0-1.15,3.67.46.46,0,0,1-.46.46H2.84a1.62,1.62,0,0,1-1.15-.48l0,0a1.63,1.63,0,0,1-.45-1.12V13A2.79,2.79,0,0,1,2,11H2a2.79,2.79,0,0,1,2-.82H42.15a2.77,2.77,0,0,1,1.69.56h0a2.78,2.78,0,0,1,1,1.48L47.3,21a.67.67,0,0,0,.42.46h0l.42.16h0a1.61,1.61,0,0,1,1,1.52V33.32A1.63,1.63,0,0,1,47.57,35h-.4a.47.47,0,0,1-.47-.47,6.55,6.55,0,0,0-1.16-3.73h0a6.71,6.71,0,0,0-.75-.89,6.58,6.58,0,0,0-11.23,4.65.46.46,0,0,1-.46.46H18.33a.47.47,0,0,1-.47-.47v0a6.67,6.67,0,0,0-.31-1.91l0-.08a6.67,6.67,0,0,0-1.62-2.62h0a6.57,6.57,0,0,0-10,.88Zm-1.23.23H2.14v2.32a.69.69,0,0,0,.19.48l0,0a.7.7,0,0,0,.49.21h1A7.46,7.46,0,0,1,4.67,30.94Zm43.6,0H46.75A7.42,7.42,0,0,1,47.62,34a.7.7,0,0,0,.65-.7ZM32.81,32.82H18.6a7.4,7.4,0,0,1,.18,1.2H32.64A7.52,7.52,0,0,1,32.81,32.82Zm-2.32-19H21.7v18h8.78v-18Zm10.41,0H31.42v7.88H43.63l-2.06-7.37h0a.7.7,0,0,0-.25-.37h0A.69.69,0,0,0,40.89,13.87ZM11.29,32.49a2,2,0,1,0,1.41.58A2,2,0,0,0,11.29,32.49Zm-2.07-.07a2.93,2.93,0,1,0,2.07-.86A2.93,2.93,0,0,0,9.22,32.42Zm30.91.07a2,2,0,0,1,1.44,3.39l0,0a2,2,0,0,1-2.85-2.81l0,0A2,2,0,0,1,40.13,32.49Zm-2.07-.07a2.93,2.93,0,0,1,4.17,4.12l0,0a2.93,2.93,0,0,1-4.14,0h0a2.93,2.93,0,0,1,0-4.12ZM11.29,30.1a4.39,4.39,0,1,0,3.1,7.49h0a4.39,4.39,0,0,0,0-6.2h0A4.38,4.38,0,0,0,11.29,30.1Zm-3.76.63a5.32,5.32,0,1,0,7.52,7.52h0a5.31,5.31,0,0,0,0-7.52h0a5.32,5.32,0,0,0-7.52,0Zm28.83,0a5.32,5.32,0,0,1,7.55,7.49l0,0a5.32,5.32,0,0,1-7.55-7.49Z"/></svg>